<?xml version="1.0" encoding="utf-8"?>
<!-- Generator: Adobe Illustrator 22.0.0, SVG Export Plug-In . SVG Version: 6.00 Build 0)  -->
<svg version="1.1" id="Layer_1" xmlns="http://www.w3.org/2000/svg" xmlns:xlink="http://www.w3.org/1999/xlink" x="0px" y="0px"
	 viewBox="0 0 6000 1148" style="enable-background:new 0 0 6000 1148;" xml:space="preserve">
<style type="text/css">
	.st0{fill:#FFFFFF;stroke:#FFFFFF;stroke-width:9.431;stroke-linecap:round;stroke-linejoin:round;}
	.st1{fill:#8EC345;}
	.st2{fill:none;stroke:#8EC345;stroke-width:6.2183;stroke-linecap:round;stroke-linejoin:round;}
	.st3{fill:none;stroke:#8EC345;stroke-width:4.6637;stroke-linecap:round;stroke-linejoin:round;}
	.st4{fill:#FFFFFF;}
	.st5{fill:none;stroke:#FFFFFF;stroke-width:12.5746;stroke-linecap:round;stroke-linejoin:round;}
	.st6{fill:none;stroke:#FFFFFF;stroke-width:9.431;stroke-linecap:round;stroke-linejoin:round;}
	.st7{fill:none;stroke:#8EC345;stroke-width:12.5746;stroke-linecap:round;stroke-linejoin:round;}
</style>
<g>
	<g>
		<path class="st4" d="M1778.9,927.1c70.5,0,95.7,32.6,95.7,100.5v106.8c0,5.3-3.7,8.9-8.9,8.9h-19.5c-5.3,0-8.9-3.7-8.9-8.9v-86.8
			c0-55.8-5.3-87.8-55.2-87.8c-6.8,0-42.1,2.1-52.1,8.9v165.7c0,5.3-3.7,8.9-8.9,8.9h-19.5c-5.3,0-8.9-3.7-8.9-8.9V946
			c0-4.2,3.2-6.8,8.4-8.4C1727.4,930.2,1757.9,927.1,1778.9,927.1z"/>
		<path class="st4" d="M2181.2,1145.9c-70,0-104.1-42.1-104.1-111.5c0-64.7,29.5-107.3,98.9-107.3c55.2,0,85.7,28.9,85.7,64.7
			c0,52.6-35.2,71-79.4,71c-15.8,0-40.5-2.1-67.8-13.7c0,37.9,27.4,64.2,68.9,64.2c14.7,0,35.8-3.2,60-12.6c1-0.5,2.1-0.5,3.2-0.5
			c3.7,0,6.8,2.1,8.4,6.3l4.2,12.6c0.5,1,0.5,2.6,0.5,3.7c0,4.2-2.6,5.8-6.8,8.4C2231.2,1143.8,2203.3,1145.9,2181.2,1145.9z
			 M2114.4,1012.8c14.7,12.1,43.7,17.4,56.8,17.4c34.7,0,53.1-7.9,53.1-33.7c0-31.6-23.7-36.8-48.4-36.8
			C2146,959.7,2122.9,972.8,2114.4,1012.8z"/>
		<path class="st4" d="M2579.4,1147.4c-67.8,0-83.6-46.3-83.6-115.7v-68.9H2461c-5.3,0-8.9-3.7-8.9-8.9v-14.7c0-5.3,3.7-8.9,8.9-8.9
			h33.7l6.8-77.8c0-4.7,3.2-7.9,7.9-7.9h16.8c4.7,0,7.9,3.2,7.9,7.9v77.8h63.6c5.3,0,8.9,3.7,8.9,8.9v14.7c0,5.3-3.7,8.9-8.9,8.9
			h-63.6v82.6c0,23.7,1.6,67.9,54.7,67.9c6.3,0,12.1-2.6,18.4-2.6c3.7,0,6.3,2.1,7.4,6.3l4.2,15.3c0.5,1.1,0.5,3.7,0.5,4.7
			C2618.8,1146.9,2590.9,1147.4,2579.4,1147.4z"/>
		<path class="st4" d="M3043.2,930.2h19.5c5.3,0,7.9,3.7,8.9,8.9c3.7,24.2,8.4,55.8,8.4,77.3c0,70-6.8,129.4-75.7,129.4
			c-23.1,0-36.3-4.7-53.6-24.7c-18.9,24.7-59.4,24.7-65.7,24.7c-52.1,0-68.4-40.5-68.4-92.6V939.2c0-5.3,3.7-8.9,8.9-8.9h19.5
			c5.3,0,8.9,3.7,8.9,8.9v109.9c0,61,11,64.2,44.7,64.2c13.2,0,24.2-5.8,34.7-17.4c-3.7-19.5-4.2-32.1-4.2-44.7v-112
			c0-5.3,3.7-8.9,8.9-8.9h19.5c5.3,0,8.9,3.7,8.9,8.9v108.3c0,61,16.3,65.7,38.4,65.7c37.9,0,37.9-35.2,37.9-97.3
			c0-22.6-3.2-53.1-8.4-76.8C3034.3,933.9,3038,930.2,3043.2,930.2z"/>
		<path class="st4" d="M3282.5,1034.4c0-64.7,33.1-107.3,103.6-107.3c70.5,0,103.6,42.6,103.6,107.3c0,69.4-33.1,111.5-103.6,111.5
			C3315.6,1145.9,3282.5,1103.8,3282.5,1034.4z M3452.4,1034.9c0-32.6-12.6-75.2-66.3-75.2c-53.6,0-66.3,42.6-66.3,75.2
			c0,31.6,6.3,78.4,66.3,78.4S3452.4,1066.4,3452.4,1034.9z"/>
		<path class="st4" d="M3734.8,972.3v162c0,5.3-3.7,8.9-8.9,8.9h-19.5c-5.3,0-8.9-3.7-8.9-8.9v-183c0-4.2,3.2-8.4,8.4-10.5
			c23.1-8.4,43.1-13.2,64.2-13.2c20,0,41.6,1.1,64.2,11.6c4.2,1.6,6.8,4.2,6.8,8.4c0,1,0,2.1-0.5,3.2l-4.2,13.1
			c-1.1,4.2-4.7,6.3-8.4,6.3c-1,0-2.1,0-3.2-0.5c-22.1-9.5-37.3-9.5-51.5-9.5C3766.3,960.2,3745.8,963.9,3734.8,972.3z"/>
		<path class="st4" d="M4117.7,1040.2c-16.3,7.4-31,12.1-47.3,15.8v78.4c0,5.3-3.7,8.9-8.9,8.9h-19.5c-5.3,0-8.9-3.7-8.9-8.9V853.4
			c0-5.3,3.7-8.9,8.9-8.9h19.5c5.3,0,8.9,3.7,8.9,8.9V1016c38.4-3.2,89.4-37.3,104.1-78.9c1-3.7,4.7-6.8,8.9-6.8h19.5
			c5.3,0,8.9,3.7,8.9,8.9c-7.9,25.8-22.6,53.6-63.6,83.1c19.5,25.2,33.7,47.3,70.5,112c0,5.3-3.7,8.9-8.9,8.9h-24.2
			c-4.2,0-7.9-3.2-8.9-6.8C4146.6,1080.1,4131.9,1059.6,4117.7,1040.2z"/>
	</g>
	<g>
		<circle class="st5" cx="2832.2" cy="423.2" r="416.2"/>
		<circle cx="2832.2" cy="423.2" r="386.8"/>
		<path class="st6" d="M2791.3,723.8c5.4-13.7,15.2-19.8,25.1-25.5c10.3-6,21.5-10,32.6-14c43.9-15.8,88.2-30.9,128.7-54.6
			c44.8-26.2,84.2-57.9,108.3-105.3c19.1-37.6,28.2-77.9,31.5-119.6c3-37.2,2.2-74.4-4.6-114c-5.2,9-8.3,16.2-13.3,22.3
			c-20.4,24.9-48.1,39.5-75.8,54c-37.6,19.7-76.6,36.7-113.4,58c-78.9,45.7-98,124.3-89.8,203c0.7,7,4.1,7.9,9.9,5.1
			c10.7-5.1,21.6-9.7,32.2-15c86.7-43,159.1-100.7,197.1-193.3c0.8-2.1,1.3-5.2,4.4-4.1c2.9,1,1.7,4.1,1.3,6
			c-2.3,9.9-4.6,19.9-7.7,29.6c-18.2,55.5-55,96.6-101.2,130.5c-29.1,21.3-61.1,37.6-92.6,54.9c-25.5,14-49.8,30-66,55.3
			C2793.6,704.3,2789,711.9,2791.3,723.8z"/>
		<path class="st6" d="M2722.3,411.3c-31.7-23.8-67.6-40.8-101-61.8c-25.1-15.8-50.5-31.5-63-63.4c-1.5,4.7-2.5,7.1-3.1,9.6
			c-7.5,35.7-9.6,71.7-6.4,108.1c5.5,62.9,31.2,114.6,82.6,153c34.6,25.9,73.3,43.9,112.5,61.1c19.3,8.5,40,15.4,52.1,35.6
			c1.1-10.7-2.5-19.8-11.3-30.9c-12.5-15.7-28.1-27.8-44.9-38.3c-25.1-15.7-50.4-31.2-73-50.6c-39.5-33.8-67.9-74.2-76.7-126.5
			c-0.4-2.1-2.2-4.9,0.7-6.1c3.4-1.4,4.4,1.8,5.4,4.2c4,9.4,7.2,19.2,11.9,28.1c36.1,68.5,94.4,112.9,161.8,147.2
			c4.9,2.5,6.8,1.5,7.7-4c3.7-22.8,4.8-45.6,1.7-68.7C2774,467.4,2754.9,435.6,2722.3,411.3z"/>
		<path class="st6" d="M2832.4,167.7c-11.9,22.8-27.1,43.4-41.4,64.5c-11.8,17.4-23.8,34.9-31.3,54.6
			c-18.3,48.1-3.3,90.3,24.3,129.9c3.4,4.9,5.7,2.7,8.1-0.7c6.8-9.7,14-19.1,20.4-29.1c27.3-42.9,45.6-88.7,46.5-140.4
			c0.1-8.6-1.9-17.3,1.5-25.9c6.3,11,7.8,23.3,8.5,35.5c2.6,44.1-12.6,83.4-34.2,120.7c-12.9,22.4-29.6,42.9-37.2,68.2
			c-3.6,12-5.9,24.2,0,38c2.9-18.3,6.8-25.3,25.6-46.7c25.7-29.3,50-59.4,66.5-95.2c14.5-31.4,20.2-64,13.5-98
			c-8.3-41.8-26.8-79.2-52.1-113.4c-2-2.7-3.4-6.2-8-7.2C2844.9,139.4,2839.7,153.8,2832.4,167.7z"/>
	</g>
	<g>
		<g>
			<g>
				<path d="M1700.6,774.5c-4.1,0-7.6-3.6-7.6-7.8v-679c0-4.3,3.5-7.8,7.6-7.8h258.1c4.1,0,7.6,3.6,7.6,7.8v72
					c0,4.3-3.5,7.8-7.6,7.8h-120.9c-36.6,0-58.5,22.1-58.5,59v118.3c0,37,21.9,59,58.5,59h90.4c4.1,0,7.6,3.6,7.6,7.8v72
					c0,4.3-3.5,7.8-7.6,7.8h-90.4c-36.6,0-58.5,22.1-58.5,59v216c0,4.3-3.5,7.8-7.6,7.8H1700.6z"/>
			</g>
			<g>
				<path d="M2096,774.5c-4.1,0-7.6-3.6-7.6-7.8v-679c0-4.3,3.5-7.8,7.6-7.8h71.1c4.1,0,7.6,3.6,7.6,7.8v540.1c0,37,21.9,59,58.5,59
					h84.4c4.1,0,7.6,3.6,7.6,7.8v72c0,4.3-3.5,7.8-7.6,7.8H2096z"/>
			</g>
		</g>
	</g>
	<g>
		<g>
			<g>
				<path d="M3599.8,761.9c-1.8,0-2.5-0.3-3.3-1.2l-0.7-1.3c-6.7-12.8-9.7-33.5-9.7-67.1V544.2c0-16.3-2-39.5-19-54.3
					c-9.8-10.9-24.4-10.9-29.3-10.9h-36.6c-34.5,0-59.5,25.3-59.5,60.1v215c0,4.3-3.5,7.8-7.6,7.8H3363c-4.1,0-7.6-3.6-7.6-7.8v-679
					c0-4.3,3.5-7.8,7.6-7.8h171.8c54.8,0,91,14.5,114,45.7c23.8,32.3,34.9,83.4,34.9,160.7c0,56.8-13.4,107.5-39.8,150.8l-0.1,0.1
					c-11.3,19.1-10.9,38.5,1.2,57.6l0.1,0.2c0.9,1.4,1.9,2.8,2.8,4.3c11.5,17.3,24.6,36.9,24.6,59.7v149.2c0,17.6,1.7,32.7,5.4,49.1
					c1.4,6.1,0.9,11.4-1.4,14.3c-1.6,2-4.5,3-8.6,3H3599.8z M3501.2,155c-34.5,0-59.5,25.3-59.5,60.1v116.3
					c0,34.8,22.5,60.1,53.4,60.1h39.6c23,0,39.8-10.6,49.7-31.6c8.7-18.4,12.8-45.7,12.8-86.1c0-40.8-4.1-68.5-12.8-87
					c-9.9-21.1-26.7-31.7-49.8-31.7H3501.2z"/>
			</g>
			<g>
				<path d="M4133.9,761.9c-3.3-1.2-4.9-5.3-7.8-18.6c-0.5-2.5-1.1-5.1-1.8-7.7l-3.1-11.4c-6.5-27.2-24.4-41.5-52-41.5h-124
					c-27.6,0-45.6,14.4-52,41.6l-8.2,32l0,0.2c-0.4,2-1.8,5.4-5.9,5.4h-65c-3.5,0-6.3-1.2-8.1-3.3c-1.8-2.2-2.5-5.4-1.8-9
					l159.5-676.9c0.4-2,1.8-5.4,5.9-5.4h75.2c4.1,0,5.4,3.4,5.9,5.4l159.5,676.9c0.7,3.6,0,6.8-1.8,9c-1.8,2.2-4.7,3.3-8.1,3.3
					H4133.9z M4007.3,355.3c-15.9,0-28.9,13.7-34.7,36.6L3937,541.3c-5,21,0.8,34.1,6.5,41.3c5.6,7.1,16.7,15.6,37.4,15.6h52.8
					c21.5,0,32.8-8.6,38.4-15.8c5.7-7.2,11.4-20.2,6.5-41.1L4042,391.9C4036.2,369,4023.2,355.3,4007.3,355.3z"/>
			</g>
		</g>
	</g>
</g>
</svg>
